<svg width="1440" height="528" viewBox="0 0 1440 528" fill="none" xmlns="http://www.w3.org/2000/svg">
<path fill-rule="evenodd" clip-rule="evenodd" d="M0 52.764L20.4 42.7437C39.6 32.7234 80.4 12.6827 120 22.703C159.6 32.7234 200.4 72.8047 240 87.8352C279.6 102.866 320.4 92.8454 360 77.8149C399.6 62.7844 440.4 42.7437 480 57.7742C519.6 72.8047 560.4 122.906 600 152.967C639.6 183.028 680.4 193.049 720 162.988C759.6 132.927 800.4 62.7844 840 27.7132C879.6 -7.35795 920.4 -7.35795 960 17.6929C999.6 42.7437 1040.4 92.8454 1080 127.917C1119.6 162.988 1160.4 183.028 1200 178.018C1239.6 173.008 1280.4 142.947 1320 137.937C1359.6 132.927 1400.4 152.967 1419.6 162.988L1440 173.008V528H1419.6C1400.4 528 1359.6 528 1320 528C1280.4 528 1239.6 528 1200 528C1160.4 528 1119.6 528 1080 528C1040.4 528 999.6 528 960 528C920.4 528 879.6 528 840 528C800.4 528 759.6 528 720 528C680.4 528 639.6 528 600 528C560.4 528 519.6 528 480 528C440.4 528 399.6 528 360 528C320.4 528 279.6 528 240 528C200.4 528 159.6 528 120 528C80.4 528 39.6 528 20.4 528H0V52.764Z" fill="#0E1B28"/>
</svg>
